# Blender v3.0.0 OBJ File: 'untitled.blend'
# www.blender.org
mtllib lower_arm.mtl
o Lower_arm_mesh_Mesh.001
v -0.750000 0.095000 0.000000
v -0.736921 0.095000 -0.047228
v -0.699537 0.095000 -0.089074
v -0.640625 0.095000 -0.125781
v -0.562963 0.095000 -0.157593
v -0.469329 0.095000 -0.184751
v -0.362500 0.095000 -0.207500
v -0.245255 0.095000 -0.226082
v -0.120370 0.095000 -0.240741
v 0.009375 0.095000 -0.251719
v 0.141204 0.095000 -0.259259
v 0.272338 0.095000 -0.263605
v 0.400000 0.095000 -0.265000
v 0.448468 0.095000 -0.263605
v 0.494655 0.095000 -0.259259
v 0.538193 0.095000 -0.251719
v 0.578714 0.095000 -0.240741
v 0.615848 0.095000 -0.226082
v 0.649227 0.095000 -0.207500
v 0.678483 0.095000 -0.184751
v 0.703246 0.095000 -0.157593
v 0.723148 0.095000 -0.125781
v 0.737820 0.095000 -0.089074
v 0.746893 0.095000 -0.047228
v 0.750000 0.095000 0.000000
v 0.746935 0.095000 0.047228
v 0.737969 0.095000 0.089074
v 0.723450 0.095000 0.125781
v 0.703723 0.095000 0.157593
v 0.679135 0.095000 0.184751
v 0.650032 0.095000 0.207500
v 0.616761 0.095000 0.226082
v 0.579668 0.095000 0.240741
v 0.539099 0.095000 0.251719
v 0.495400 0.095000 0.259259
v 0.448919 0.095000 0.263605
v 0.400000 0.095000 0.265000
v 0.272338 0.095000 0.263605
v 0.141204 0.095000 0.259259
v 0.009375 0.095000 0.251719
v -0.120370 0.095000 0.240741
v -0.245255 0.095000 0.226082
v -0.362500 0.095000 0.207500
v -0.469329 0.095000 0.184751
v -0.562963 0.095000 0.157593
v -0.640625 0.095000 0.125781
v -0.699537 0.095000 0.089074
v -0.736921 0.095000 0.047228
v -0.750000 -0.095000 0.000000
v -0.736921 -0.095000 -0.047228
v -0.699537 -0.095000 -0.089074
v -0.640625 -0.095000 -0.125781
v -0.562963 -0.095000 -0.157593
v -0.469329 -0.095000 -0.184751
v -0.362500 -0.095000 -0.207500
v -0.245255 -0.095000 -0.226082
v -0.120370 -0.095000 -0.240741
v 0.009375 -0.095000 -0.251719
v 0.141204 -0.095000 -0.259259
v 0.272338 -0.095000 -0.263605
v 0.400000 -0.095000 -0.265000
v 0.448468 -0.095000 -0.263605
v 0.494655 -0.095000 -0.259259
v 0.538193 -0.095000 -0.251719
v 0.578714 -0.095000 -0.240741
v 0.615848 -0.095000 -0.226082
v 0.649227 -0.095000 -0.207500
v 0.678483 -0.095000 -0.184751
v 0.703246 -0.095000 -0.157593
v 0.723148 -0.095000 -0.125781
v 0.737820 -0.095000 -0.089074
v 0.746893 -0.095000 -0.047228
v 0.750000 -0.095000 0.000000
v 0.746935 -0.095000 0.047228
v 0.737969 -0.095000 0.089074
v 0.723450 -0.095000 0.125781
v 0.703723 -0.095000 0.157593
v 0.679135 -0.095000 0.184751
v 0.650032 -0.095000 0.207500
v 0.616761 -0.095000 0.226082
v 0.579668 -0.095000 0.240741
v 0.539099 -0.095000 0.251719
v 0.495400 -0.095000 0.259259
v 0.448919 -0.095000 0.263605
v 0.400000 -0.095000 0.265000
v 0.272338 -0.095000 0.263605
v 0.141204 -0.095000 0.259259
v 0.009375 -0.095000 0.251719
v -0.120370 -0.095000 0.240741
v -0.245255 -0.095000 0.226082
v -0.362500 -0.095000 0.207500
v -0.469329 -0.095000 0.184751
v -0.562963 -0.095000 0.157593
v -0.640625 -0.095000 0.125781
v -0.699537 -0.095000 0.089074
v -0.736921 -0.095000 0.047228
vn 0.0000 1.0000 0.0000
vn 0.0000 -1.0000 0.0000
vn 0.0288 0.0000 -0.9996
vn -0.0843 0.0000 0.9964
vn 0.9299 0.0000 0.3678
vn 0.0937 0.0000 -0.9956
vn -0.1166 0.0000 0.9932
vn -0.9637 0.0000 -0.2669
vn 0.8499 0.0000 0.5270
vn 0.1707 0.0000 -0.9853
vn -0.1565 0.0000 0.9877
vn -0.7457 0.0000 -0.6662
vn 0.7413 0.0000 0.6712
vn 0.2615 0.0000 -0.9652
vn -0.2083 0.0000 0.9781
vn -0.5288 0.0000 -0.8487
vn 0.6159 0.0000 0.7879
vn 0.3672 0.0000 -0.9302
vn -0.2786 0.0000 0.9604
vn -0.3790 0.0000 -0.9254
vn 0.4876 0.0000 0.8731
vn 0.4864 0.0000 -0.8737
vn -0.3790 0.0000 0.9254
vn -0.2786 0.0000 -0.9604
vn 0.3675 0.0000 0.9300
vn 0.6138 0.0000 -0.7894
vn -0.5288 0.0000 0.8487
vn -0.2083 0.0000 -0.9781
vn 0.2612 0.0000 0.9653
vn 0.7389 0.0000 -0.6738
vn -0.7457 0.0000 0.6662
vn -0.1565 0.0000 -0.9877
vn 0.1700 0.0000 0.9854
vn 0.8478 0.0000 -0.5304
vn -0.9637 0.0000 0.2669
vn -0.1166 0.0000 -0.9932
vn 0.0931 0.0000 0.9957
vn 0.9286 0.0000 -0.3712
vn -0.0843 0.0000 -0.9964
vn 0.0285 0.0000 0.9996
vn 0.9773 0.0000 -0.2119
vn -0.0571 0.0000 -0.9984
vn -0.0109 0.0000 0.9999
vn 0.9978 0.0000 -0.0656
vn -0.0331 0.0000 -0.9995
vn -0.0331 0.0000 0.9995
vn 0.9979 0.0000 0.0648
vn -0.0109 0.0000 -0.9999
vn -0.0571 0.0000 0.9984
vn 0.9778 0.0000 0.2095
usemtl (null)
s off
f 39//1 38//1 12//1
f 22//1 20//1 23//1
f 37//1 36//1 14//1
f 38//1 37//1 12//1
f 43//1 42//1 8//1
f 43//1 8//1 7//1
f 41//1 40//1 10//1
f 40//1 39//1 11//1
f 42//1 9//1 8//1
f 44//1 43//1 7//1
f 42//1 41//1 9//1
f 6//1 44//1 7//1
f 40//1 11//1 10//1
f 5//1 44//1 6//1
f 4//1 3//1 46//1
f 35//1 16//1 15//1
f 5//1 4//1 45//1
f 41//1 10//1 9//1
f 87//2 60//2 86//2
f 17//1 16//1 34//1
f 39//1 12//1 11//1
f 46//1 3//1 47//1
f 18//1 17//1 24//1
f 3//1 2//1 47//1
f 47//1 2//1 48//1
f 19//1 18//1 23//1
f 36//1 35//1 15//1
f 37//1 14//1 13//1
f 27//1 32//1 31//1
f 44//1 5//1 45//1
f 26//1 33//1 32//1
f 27//1 26//1 32//1
f 34//1 33//1 17//1
f 28//1 27//1 31//1
f 17//1 25//1 24//1
f 21//1 20//1 22//1
f 30//1 28//1 31//1
f 18//1 24//1 23//1
f 16//1 35//1 34//1
f 23//1 20//1 19//1
f 33//1 25//1 17//1
f 30//1 29//1 28//1
f 37//1 13//1 12//1
f 2//1 1//1 48//1
f 33//1 26//1 25//1
f 36//1 15//1 14//1
f 45//1 4//1 46//1
f 70//2 71//2 68//2
f 85//2 62//2 84//2
f 86//2 60//2 85//2
f 91//2 56//2 90//2
f 91//2 55//2 56//2
f 89//2 58//2 88//2
f 88//2 59//2 87//2
f 90//2 56//2 57//2
f 92//2 55//2 91//2
f 90//2 57//2 89//2
f 54//2 55//2 92//2
f 88//2 58//2 59//2
f 53//2 54//2 92//2
f 52//2 94//2 51//2
f 83//2 63//2 64//2
f 53//2 93//2 52//2
f 89//2 57//2 58//2
f 65//2 82//2 64//2
f 87//2 59//2 60//2
f 94//2 95//2 51//2
f 66//2 72//2 65//2
f 51//2 95//2 50//2
f 95//2 96//2 50//2
f 67//2 71//2 66//2
f 84//2 63//2 83//2
f 85//2 61//2 62//2
f 75//2 79//2 80//2
f 92//2 93//2 53//2
f 74//2 80//2 81//2
f 75//2 80//2 74//2
f 82//2 65//2 81//2
f 76//2 79//2 75//2
f 65//2 72//2 73//2
f 69//2 70//2 68//2
f 78//2 79//2 76//2
f 66//2 71//2 72//2
f 64//2 82//2 83//2
f 71//2 67//2 68//2
f 81//2 65//2 73//2
f 78//2 76//2 77//2
f 85//2 60//2 61//2
f 50//2 96//2 49//2
f 81//2 73//2 74//2
f 84//2 62//2 63//2
f 93//2 94//2 52//2
f 14//3 62//3 61//3 13//3
f 41//4 89//4 88//4 40//4
f 28//5 76//5 75//5 27//5
f 15//6 63//6 62//6 14//6
f 42//7 90//7 89//7 41//7
f 2//8 50//8 49//8 1//8
f 29//9 77//9 76//9 28//9
f 16//10 64//10 63//10 15//10
f 43//11 91//11 90//11 42//11
f 3//12 51//12 50//12 2//12
f 30//13 78//13 77//13 29//13
f 17//14 65//14 64//14 16//14
f 44//15 92//15 91//15 43//15
f 4//16 52//16 51//16 3//16
f 31//17 79//17 78//17 30//17
f 18//18 66//18 65//18 17//18
f 45//19 93//19 92//19 44//19
f 5//20 53//20 52//20 4//20
f 32//21 80//21 79//21 31//21
f 19//22 67//22 66//22 18//22
f 46//23 94//23 93//23 45//23
f 6//24 54//24 53//24 5//24
f 33//25 81//25 80//25 32//25
f 20//26 68//26 67//26 19//26
f 47//27 95//27 94//27 46//27
f 7//28 55//28 54//28 6//28
f 34//29 82//29 81//29 33//29
f 21//30 69//30 68//30 20//30
f 48//31 96//31 95//31 47//31
f 8//32 56//32 55//32 7//32
f 35//33 83//33 82//33 34//33
f 22//34 70//34 69//34 21//34
f 1//35 49//35 96//35 48//35
f 9//36 57//36 56//36 8//36
f 36//37 84//37 83//37 35//37
f 23//38 71//38 70//38 22//38
f 10//39 58//39 57//39 9//39
f 37//40 85//40 84//40 36//40
f 24//41 72//41 71//41 23//41
f 11//42 59//42 58//42 10//42
f 38//43 86//43 85//43 37//43
f 25//44 73//44 72//44 24//44
f 12//45 60//45 59//45 11//45
f 39//46 87//46 86//46 38//46
f 26//47 74//47 73//47 25//47
f 13//48 61//48 60//48 12//48
f 40//49 88//49 87//49 39//49
f 27//50 75//50 74//50 26//50
