# Blender v3.0.0 OBJ File: 'untitled.blend'
# www.blender.org
mtllib upper_arm.mtl
o Upper_arm_mesh_Mesh
v -0.720000 0.095000 0.000000
v -0.705602 0.095000 -0.045949
v -0.664815 0.095000 -0.084259
v -0.601250 0.095000 -0.115625
v -0.518519 0.095000 -0.140741
v -0.420231 0.095000 -0.160301
v -0.310000 0.095000 -0.175000
v -0.191435 0.095000 -0.185532
v -0.068148 0.095000 -0.192593
v 0.056250 0.095000 -0.196875
v 0.178148 0.095000 -0.199074
v 0.293935 0.095000 -0.199884
v 0.400000 0.095000 -0.200000
v 0.427303 0.095000 -0.199884
v 0.458426 0.095000 -0.199074
v 0.492188 0.095000 -0.196875
v 0.527407 0.095000 -0.192593
v 0.562905 0.095000 -0.185532
v 0.597500 0.095000 -0.175000
v 0.630012 0.095000 -0.160301
v 0.659259 0.095000 -0.140741
v 0.684062 0.095000 -0.115625
v 0.703241 0.095000 -0.084259
v 0.715613 0.095000 -0.045949
v 0.720000 0.095000 0.000000
v 0.715613 0.095000 0.045949
v 0.703241 0.095000 0.084259
v 0.684062 0.095000 0.115625
v 0.659259 0.095000 0.140741
v 0.630012 0.095000 0.160301
v 0.597500 0.095000 0.175000
v 0.562905 0.095000 0.185532
v 0.527407 0.095000 0.192593
v 0.492187 0.095000 0.196875
v 0.458426 0.095000 0.199074
v 0.427303 0.095000 0.199884
v 0.400000 0.095000 0.200000
v 0.293935 0.095000 0.199884
v 0.178148 0.095000 0.199074
v 0.056250 0.095000 0.196875
v -0.068148 0.095000 0.192593
v -0.191435 0.095000 0.185532
v -0.310000 0.095000 0.175000
v -0.420232 0.095000 0.160301
v -0.518519 0.095000 0.140741
v -0.601250 0.095000 0.115625
v -0.664815 0.095000 0.084259
v -0.705602 0.095000 0.045949
v -0.720000 -0.095000 0.000000
v -0.705602 -0.095000 -0.045949
v -0.664815 -0.095000 -0.084259
v -0.601250 -0.095000 -0.115625
v -0.518519 -0.095000 -0.140741
v -0.420231 -0.095000 -0.160301
v -0.310000 -0.095000 -0.175000
v -0.191435 -0.095000 -0.185532
v -0.068148 -0.095000 -0.192593
v 0.056250 -0.095000 -0.196875
v 0.178148 -0.095000 -0.199074
v 0.293935 -0.095000 -0.199884
v 0.400000 -0.095000 -0.200000
v 0.427303 -0.095000 -0.199884
v 0.458426 -0.095000 -0.199074
v 0.492188 -0.095000 -0.196875
v 0.527407 -0.095000 -0.192593
v 0.562905 -0.095000 -0.185532
v 0.597500 -0.095000 -0.175000
v 0.630012 -0.095000 -0.160301
v 0.659259 -0.095000 -0.140741
v 0.684062 -0.095000 -0.115625
v 0.703241 -0.095000 -0.084259
v 0.715613 -0.095000 -0.045949
v 0.720000 -0.095000 0.000000
v 0.715613 -0.095000 0.045949
v 0.703241 -0.095000 0.084259
v 0.684062 -0.095000 0.115625
v 0.659259 -0.095000 0.140741
v 0.630012 -0.095000 0.160301
v 0.597500 -0.095000 0.175000
v 0.562905 -0.095000 0.185532
v 0.527407 -0.095000 0.192593
v 0.492187 -0.095000 0.196875
v 0.458426 -0.095000 0.199074
v 0.427303 -0.095000 0.199884
v 0.400000 -0.095000 0.200000
v 0.293935 -0.095000 0.199884
v 0.178148 -0.095000 0.199074
v 0.056250 -0.095000 0.196875
v -0.068148 -0.095000 0.192593
v -0.191435 -0.095000 0.185532
v -0.310000 -0.095000 0.175000
v -0.420232 -0.095000 0.160301
v -0.518519 -0.095000 0.140741
v -0.601250 -0.095000 0.115625
v -0.664815 -0.095000 0.084259
v -0.705602 -0.095000 0.045949
vn 0.0000 1.0000 -0.0000
vn 0.0000 -1.0000 -0.0000
vn -0.2905 0.0000 0.9569
vn -0.1952 0.0000 -0.9808
vn 0.1951 0.0000 0.9808
vn 0.4120 0.0000 -0.9112
vn -0.4425 0.0000 0.8968
vn -0.1322 0.0000 -0.9912
vn 0.1207 0.0000 0.9927
vn 0.5559 0.0000 -0.8312
vn -0.6846 0.0000 0.7289
vn -0.0885 0.0000 -0.9961
vn 0.0650 0.0000 0.9979
vn 0.7115 0.0000 -0.7027
vn -0.9542 0.0000 0.2990
vn -0.0572 0.0000 -0.9984
vn 0.0260 0.0000 0.9997
vn 0.8532 0.0000 -0.5217
vn -0.0344 0.0000 -0.9994
vn 0.0042 0.0000 1.0000
vn 0.9516 0.0000 -0.3073
vn -0.0180 0.0000 -0.9998
vn -0.0011 0.0000 1.0000
vn 0.9955 0.0000 -0.0950
vn -0.0070 0.0000 -1.0000
vn -0.0070 0.0000 1.0000
vn 0.9955 0.0000 0.0950
vn -0.0011 0.0000 -1.0000
vn -0.0180 0.0000 0.9998
vn 0.9516 0.0000 0.3073
vn 0.0042 0.0000 -1.0000
vn -0.0344 0.0000 0.9994
vn 0.8532 0.0000 0.5217
vn 0.0260 0.0000 -0.9997
vn -0.0572 0.0000 0.9984
vn -0.9542 0.0000 -0.2990
vn 0.7115 0.0000 0.7027
vn 0.0650 0.0000 -0.9979
vn -0.0885 0.0000 0.9961
vn -0.6846 0.0000 -0.7289
vn 0.5559 0.0000 0.8312
vn 0.1207 0.0000 -0.9927
vn -0.1322 0.0000 0.9912
vn -0.4425 0.0000 -0.8968
vn 0.4120 0.0000 0.9112
vn 0.1951 0.0000 -0.9808
vn -0.1952 0.0000 0.9808
vn -0.2905 0.0000 -0.9569
vn 0.2913 0.0000 0.9566
vn 0.2913 0.0000 -0.9566
usemtl (null)
s off
f 38//1 37//1 12//1
f 37//1 13//1 12//1
f 41//1 40//1 9//1
f 86//2 60//2 85//2
f 15//1 35//1 34//1
f 30//1 29//1 26//1
f 38//1 12//1 11//1
f 42//1 41//1 8//1
f 39//1 11//1 10//1
f 7//1 42//1 8//1
f 44//1 43//1 6//1
f 6//1 43//1 7//1
f 37//1 14//1 13//1
f 5//1 44//1 6//1
f 37//1 36//1 14//1
f 4//1 45//1 5//1
f 40//1 10//1 9//1
f 3//1 46//1 4//1
f 29//1 28//1 27//1
f 19//1 31//1 25//1
f 2//1 1//1 48//1
f 33//1 18//1 17//1
f 46//1 3//1 47//1
f 40//1 39//1 10//1
f 47//1 2//1 48//1
f 16//1 15//1 34//1
f 25//1 30//1 26//1
f 46//1 45//1 4//1
f 25//1 24//1 20//1
f 43//1 42//1 7//1
f 41//1 9//1 8//1
f 45//1 44//1 5//1
f 19//1 32//1 31//1
f 17//1 16//1 34//1
f 30//1 25//1 31//1
f 33//1 32//1 18//1
f 20//1 19//1 25//1
f 36//1 15//1 14//1
f 21//1 20//1 24//1
f 39//1 38//1 11//1
f 32//1 19//1 18//1
f 26//1 29//1 27//1
f 23//1 21//1 24//1
f 22//1 21//1 23//1
f 34//1 33//1 17//1
f 15//1 36//1 35//1
f 3//1 2//1 47//1
f 85//2 60//2 61//2
f 89//2 57//2 88//2
f 63//2 82//2 83//2
f 78//2 74//2 77//2
f 86//2 59//2 60//2
f 90//2 56//2 89//2
f 87//2 58//2 59//2
f 55//2 56//2 90//2
f 92//2 54//2 91//2
f 54//2 55//2 91//2
f 85//2 61//2 62//2
f 53//2 54//2 92//2
f 85//2 62//2 84//2
f 52//2 53//2 93//2
f 88//2 57//2 58//2
f 51//2 52//2 94//2
f 77//2 75//2 76//2
f 67//2 73//2 79//2
f 50//2 96//2 49//2
f 81//2 65//2 66//2
f 94//2 95//2 51//2
f 88//2 58//2 87//2
f 95//2 96//2 50//2
f 64//2 82//2 63//2
f 73//2 74//2 78//2
f 94//2 52//2 93//2
f 73//2 68//2 72//2
f 91//2 55//2 90//2
f 89//2 56//2 57//2
f 93//2 53//2 92//2
f 67//2 79//2 80//2
f 65//2 82//2 64//2
f 78//2 79//2 73//2
f 81//2 66//2 80//2
f 68//2 73//2 67//2
f 84//2 62//2 63//2
f 69//2 72//2 68//2
f 87//2 59//2 86//2
f 80//2 66//2 67//2
f 74//2 75//2 77//2
f 71//2 72//2 69//2
f 70//2 71//2 69//2
f 82//2 65//2 81//2
f 63//2 83//2 84//2
f 51//2 95//2 50//2
f 46//3 94//3 93//3 45//3
f 6//4 54//4 53//4 5//4
f 33//5 81//5 80//5 32//5
f 20//6 68//6 67//6 19//6
f 47//7 95//7 94//7 46//7
f 7//8 55//8 54//8 6//8
f 34//9 82//9 81//9 33//9
f 21//10 69//10 68//10 20//10
f 48//11 96//11 95//11 47//11
f 8//12 56//12 55//12 7//12
f 35//13 83//13 82//13 34//13
f 22//14 70//14 69//14 21//14
f 1//15 49//15 96//15 48//15
f 9//16 57//16 56//16 8//16
f 36//17 84//17 83//17 35//17
f 23//18 71//18 70//18 22//18
f 10//19 58//19 57//19 9//19
f 37//20 85//20 84//20 36//20
f 24//21 72//21 71//21 23//21
f 11//22 59//22 58//22 10//22
f 38//23 86//23 85//23 37//23
f 25//24 73//24 72//24 24//24
f 12//25 60//25 59//25 11//25
f 39//26 87//26 86//26 38//26
f 26//27 74//27 73//27 25//27
f 13//28 61//28 60//28 12//28
f 40//29 88//29 87//29 39//29
f 27//30 75//30 74//30 26//30
f 14//31 62//31 61//31 13//31
f 41//32 89//32 88//32 40//32
f 28//33 76//33 75//33 27//33
f 15//34 63//34 62//34 14//34
f 42//35 90//35 89//35 41//35
f 2//36 50//36 49//36 1//36
f 29//37 77//37 76//37 28//37
f 16//38 64//38 63//38 15//38
f 43//39 91//39 90//39 42//39
f 3//40 51//40 50//40 2//40
f 30//41 78//41 77//41 29//41
f 17//42 65//42 64//42 16//42
f 44//43 92//43 91//43 43//43
f 4//44 52//44 51//44 3//44
f 31//45 79//45 78//45 30//45
f 18//46 66//46 65//46 17//46
f 45//47 93//47 92//47 44//47
f 5//48 53//48 52//48 4//48
f 32//49 80//49 79//49 31//49
f 19//50 67//50 66//50 18//50
